<svg xmlns="http://www.w3.org/2000/svg" viewBox="0 0 80 96" width="50" height="58" fill="none">
  <!-- Contour gauche bleu (inspiré directement de l'image) -->
  <path
    d="M30 12
       C22 15 17 23 16 33
       c-1 8 1 16 3.5 22.5
       c2 5 3.8 8.8 5.2 12.5
       c1.1 2.8 2.4 3.9 4.1 3.9"
    stroke="#0073cf"
    stroke-width="4"
    stroke-linecap="round"
    stroke-linejoin="round"
  />

  <!-- Creux inférieur bleu -->
  <path
    d="M28 72
       c3-6 6-9.5 9-11"
    stroke="#0073cf"
    stroke-width="3"
    stroke-linecap="round"
  />

  <!-- Contour droit gris -->
  <path
    d="M38 14
       c7-4 15-2 20 4
       c4 5 5.5 12 5 19
       c-0.6 8-3.1 14.8-5.4 20
       c-1.7 3.8-3.3 7.1-4.7 11
       c-1.1 2.9-2.4 4-4.2 4"
    stroke="#5e666f"
    stroke-width="4"
    stroke-linecap="round"
    stroke-linejoin="round"
  />

  <!-- Creux occlusal en haut (gris) -->
  <path
    d="M36 18
       c3 2 6 3.2 9 3.4"
    stroke="#5e666f"
    stroke-width="3"
    stroke-linecap="round"
  />
</svg>
